# xmcd
#
# Track frame offsets:
#	150
#	14905
#	31997
#	45812
#	63919
#	79419
#	93939
#	112442
#	129074
#	145379
#	161147
#	174447
#	192770
#	208714
#	223101
#	234379
#	247436
#	265281
#	283316
#	304131
#	320166
#
# Disc length: 4475 seconds
#
# Revision: 1
# Processed by: cddbd v1.5.2PL0 Copyright (c) Steve Scherf et al.
# Submitted via: audiograbber 1.83.01
#
DISCID=45117915
DTITLE=REGINALDO ROSSI - AS MAIS TOCANTE - VOL. 3
DYEAR=1900
DGENRE=BREGA
TTITLE0=COR DO PECADO
TTITLE1=OS CACOS DO MEU CORAÇÃO
TTITLE2=ANTES, DURANTE E DEPOIS
TTITLE3=NOS TEUS BRAÇOS
TTITLE4=VOCÊ QUASE ACABA COMIGO
TTITLE5=CANSEI DE AMAR
TTITLE6=MOMENTOS DE AMOR
TTITLE7=A COLHEITA
TTITLE8=DEIXA DE BANCA
TTITLE9=ÚLTIMA CANÇÃO
TTITLE10=SE MEU AMOR NÃO CHEGAR
TTITLE11=NEM OURO NEM PRATA
TTITLE12=AINDA AMO VOCÊ
TTITLE13=NINGUÉM VAI TIRAR VOCÊ DE MIM
TTITLE14=VOLTA
TTITLE15=A MARIONETE
TTITLE16=ERA DOMINGO
TTITLE17=LA GITANA
TTITLE18=TÃO SOFRIDO
TTITLE19=CORAÇÃO SAFADO
TTITLE20=UM PEDAÇ DO CÉU
EXTD=
EXTT0=
EXTT1=
EXTT2=
EXTT3=
EXTT4=
EXTT5=
EXTT6=
EXTT7=
EXTT8=
EXTT9=
EXTT10=
EXTT11=
EXTT12=
EXTT13=
EXTT14=
EXTT15=
EXTT16=
EXTT17=
EXTT18=
EXTT19=
EXTT20=
PLAYORDER=
